<mxfile host="app.diagrams.net" modified="2021-01-05T18:08:02.313Z" agent="5.0 (Windows NT 10.0; Win64; x64) AppleWebKit/537.36 (KHTML, like Gecko) Chrome/87.0.4280.88 Safari/537.36" etag="nI8foDrV1WRhEUVbosTe" version="14.1.2" type="github">
  <diagram id="8hWfTQik1bvqmSpeOsrg" name="Page-1">
    <mxGraphModel dx="1736" dy="920" grid="1" gridSize="10" guides="1" tooltips="1" connect="1" arrows="1" fold="1" page="0" pageScale="1" pageWidth="1600" pageHeight="900" math="0" shadow="0">
      <root>
        <mxCell id="0" />
        <mxCell id="1" parent="0" />
        <mxCell id="L8OgLo_UH3lC8fWBD7sV-66" value="" style="whiteSpace=wrap;html=1;" vertex="1" parent="1">
          <mxGeometry y="30" width="1470" height="900" as="geometry" />
        </mxCell>
        <mxCell id="L8OgLo_UH3lC8fWBD7sV-63" style="edgeStyle=orthogonalEdgeStyle;rounded=0;orthogonalLoop=1;jettySize=auto;html=1;" edge="1" parent="1" source="L8OgLo_UH3lC8fWBD7sV-51" target="L8OgLo_UH3lC8fWBD7sV-62">
          <mxGeometry relative="1" as="geometry" />
        </mxCell>
        <mxCell id="L8OgLo_UH3lC8fWBD7sV-51" value="" style="whiteSpace=wrap;html=1;" vertex="1" parent="1">
          <mxGeometry x="180" y="70" width="1010" height="810" as="geometry" />
        </mxCell>
        <mxCell id="L8OgLo_UH3lC8fWBD7sV-3" style="edgeStyle=orthogonalEdgeStyle;rounded=0;orthogonalLoop=1;jettySize=auto;html=1;entryX=0;entryY=0.5;entryDx=0;entryDy=0;" edge="1" parent="1" source="L8OgLo_UH3lC8fWBD7sV-1" target="L8OgLo_UH3lC8fWBD7sV-2">
          <mxGeometry relative="1" as="geometry" />
        </mxCell>
        <mxCell id="L8OgLo_UH3lC8fWBD7sV-1" value="" style="verticalLabelPosition=bottom;html=1;verticalAlign=top;align=center;strokeColor=none;fillColor=#00BEF2;shape=mxgraph.azure.user;" vertex="1" parent="1">
          <mxGeometry x="70" y="190" width="47.5" height="50" as="geometry" />
        </mxCell>
        <mxCell id="L8OgLo_UH3lC8fWBD7sV-23" style="edgeStyle=orthogonalEdgeStyle;rounded=0;orthogonalLoop=1;jettySize=auto;html=1;" edge="1" parent="1" source="L8OgLo_UH3lC8fWBD7sV-2">
          <mxGeometry relative="1" as="geometry">
            <mxPoint x="495" y="215" as="targetPoint" />
          </mxGeometry>
        </mxCell>
        <mxCell id="L8OgLo_UH3lC8fWBD7sV-2" value="" style="shape=image;verticalLabelPosition=bottom;verticalAlign=top;imageAspect=0;aspect=fixed;image=data:image/jpeg,iVBORw0KGgoAAAANSUhEUgAAAlgAAAE7CAYAAAAB7v+1AAAABGdBTUEAALGPC/xhBQAAACBjSFJNAAB6JgAAgIQAAPoAAACA6AAAdTAAAOpgAAA6mAAAF3CculE8AAA0BklEQVR42u3dB7hcVbn/cU4KhBIFAZW6AoReDEVQKZm9N0jQC1jQAGJBQES8+kdREdCERaKASJMrXZpKzSRAgKCEbhBIiEho0gKhpIeUNW23/7MO7zGHcJKc2bNnzp6Z7+d53sf73OvNnD27/WbVNdYAAAAAAAAAAAAAAAAAAAAAAAAAAAAAAAAAAAAAAAAAAAAAAAAAAAAAAAAAAAAAAAAAAAAAAAAAAAAAAAAAAAAAAAAAAAAAAAAAAAAAAAAAAAAAAAAAAAAAAAAAAAAAAAAAAAAAAAAAAAAAAAAAAAAAAAAAAAAAAAAAAAAAAAAAAAAAAAAAAAAAAAAAAAAAAAAAAAAAAAAAAAAAAAAAAAAAAAAAAAAAAAAAAAAAAAAAAAAAAAAAAAAAAAAAAAAAAAAAAAAAAAAAAABAuoxWA4xWg41WnzBabWu02tVo9Tmj1TeMVicZrU43Wl25mrrMaHWq0er7RqsjjFb7GK12NlptY7Ta2Gi1ntGqH982AABo1UDV32i1idFqL6PVIUarHxitLjBa3Wy0+pfR6l2jVbBChb2o7v9932j1ptHqKaPVjUar84xWxxmtDjJa7WK02ojABQAAmj1UrWm02t1o9W2j1W+NVnmj1XNGqyVGq7iBtcBo9YTR6iaj1Wij1VeMVtsTtgAAQDMEqg6j1VpGqz2MVqcYrW4zWk03Wr1ntIoaHKpWVvbvmG20+qd0Mx5jtNpC/vYOziIAAMhKsLKhajNpqbKtVDOllSoroWplZbsY5xutnjVaXWW0+qLR6mNGq4GcVQAA0Behyrb4fNRota90/z1vtFomY6HiJiw7fmuxdCX+0Gi1k9Fqbc40AABoVLD6uNHqMKPVFUarOU0aqFYXtl4yWo0xWn3GjiXjzAMAgHqFKzsLb6TM/JvfgsGqp/FaL8hsxM/SdQgAANIMVnaMlSOz8OY2wdiqerRo2aB1sQzgH8BVAQAAkgYruxjoDhIs3pagEbdxlWWs2emykCnLPAAAgKrClR1ndYKsW1Vu82C1YhWNVo/KrMPBXC0AAGB1wWqg0Wpvo9VfjVYFwtQqy3aXnm+02pHWLAAAsLJwtYHR6kdGqxmEp6rqUVkdfi2uIgAA0BWsOmTD5etl1XVCU/VlF1fVdr9FrigAAAhXdiC7a7SaIiubE5aSl+1SvdVoNYxtdwAAaN9wtbYMZH+NcJTq2ll2NfiDjFb9ucoAAGivcGUXDR1Nl2Dd6kWj1bdYnBQAgPYJV5sYra5klmDda7bR6lS7ZyNXHQAArR+urmHR0IbVMtnTkJAFAECLhqvdZBA2C4c2tpbKDMOPcBUCANBa4Wo7o9U9hJ0+KyNj3mjJAgCgRcJV15irgKBDyAIAAOmEq6sYc5WpkHUaswsBAGjecLWu0epio1WFYJO5PQy/Zxd55SoFAKC5wlU/o9XpMsCaUJO9sou7Hs6VCgBA84Qru7fg0Uartwkyma5pRqvPcMUCANAcAeuzRqtnCDBNUbcZrbbkqgUAINvhalOjVZ7g0jRlJx/83mg1iKsXAIBshiu7efN5DGpvupovXbr9uIoBAMhWuLLjrr4oM9QILc1X/zJa7cqVDABAtgLW9karJwgqTVuh0epaFiEFACA74WqQ0eoC9hhsifWxjrWtkVzVAAD0fcD6itHqLQJKS9RTdBUCAND34crOGpxAMGmpOt9otR5XNwAAfROu7GrtJxitSoSSlqp3jVaf4woHAKBvAtb20qVEKGmtimQB0o9wlQMA0NhwtabR6kyjVUAgaclabLQawYB3AAAa33r1EkGkpVux7mAsFgAAjQtXduzV2SzL0PI122j1Za54AEC7B5/+sibVYDt+xmi1gdFqI6kN7SKS8r9fR7r4+iX8nK2NVv8mgLRF3W6vJ+4uAEA7BSq7Pc36RqttjFb7yoy+c4xWdxutHjRazZB95uZJa8TDRqu/Ga2uM1r9ymg10q55ZLTazO4jWMXnnmq0Wkr4aIt6026BxN0GAGiHYGVbqYYZrb5jtLrCaPWC0cqXAeehjJ+JVjKupqtC+e/bAHa/0WqM7CWoVtWyJWHsQYJHW5VdpX8t7jwAQKsGq8ESguwLb7rRqpLyi9SGrXuNVqcZrXbuaQaZtHqxoXN7lb3WhnEHAgBaLVjZ8VI5o9XN0mVT7xeqHbz+pNFqlNFqaFfQsjPKjFaXEzjaciPoE1myAQDQKsGqQwLOxRKsGr3mlDFaPWG0+qYMjP+00ep5Akdb1kSj1SbclQCAZg9XdpzVoUaraTK+qq8XnfyT0WosQaOtFx7dmzsTANDM4eoTRqtfGK0WZGzhyZCg0dbdhHbl/jW5QwEAzRiutpWZgYaXOpWxesyupcZdCgBotnBlF/C8pQ6zAykqjbItqntypwIAmilcDTFa3Uq4ojJcRem67scdCwBohnD1ccIV1SQbQE8wWg3grgUAZD1crW200karEi9wqgnKLtOxGXcuACDrAetbsoI6L2+qGepto7c8mDsXAJDlcLW70WoqL22qaersrZYVLtznjDiOB3IHAwCyGK7WN1pdtpJNmSkqg7VlXDhnx3Lwz6tfjeN4fBzHI+I43iCOY8ZkAQAyE7AOM1rN46VNNU2dtUVcuGifIHzjn5U4jsM4jhfHcfxwHMcnxHG8dfjUbz7m377fxn4+t2Jt6Odza/v53Fp+Ptefux8AUK9wZVdqz/PSpporYG0ZlW482sShH6/Ajxa+ODWYNPIaf9wBt/j53Ip1vZ/PjfXzuV/7+dzJfj73VT+fO9DP5/by87mhfj63Lk8FAECt4cpu4Hy40WoZL22qqeo320XBUzcW4ij6YLwqLQqDx88s+eOGR34+F/ei7H9vnp/PzfDzucl+Pneln8+d6edzR/r53DA/n1uPJwUAoNqANVjWEmLsFdVUVbh4XxMtfjtasfkqmvt06E84qNLLcLW60DXdz+cm+PncKD+fc23Y8vO5Dp4cAIDVBay9GHtFNV8NiSt3n7409ovhB9JVWInCGVct8/NOXGPAWrGKfj73lp/PPeLnc9rP53bx87nBjOECAPQUrvoZrc42WpV5YVNNVWO39cM3Hg/jD42+MmH44A8WphyuVqyyn8/NlZatL/v53GYELQBA94Bluwcf4YVNNdvswdK1RyyNlrz7odHt8ZI3Yn/ioXGdA1b3bkQbth7y87kTpFWLJSIAgICl9jFazeSlTTXZ7EHff+JPQRwGK46+iqOXbzf+hM9HDQpY3cuO+XrSz+d+4udziqcLALR3wPqB0eo9XtpUM7VeFS/6jAlnTSt9qPUqCuNgyhnv+flc2AcBq6uWSYvW9/187iM8ZQCgPQPWlby0qaaqUZtG5bt+FsTlpR+ePViYGwV//3bojzsg7sOA1VV2HNh4P5/L2QVNedoAQPuEq7WMVnfy0qaaqGswLvx2x1Lwr9tM3INo1gNL/YmH+X5+eBYCVtcYLTvz8Aw7EJ6nDgC0R8Daymj1GC9uqmlq9GZx6ZrD/Wjha0FPASt85tKlft7xMxKuVhyfZVuz9vfzOTalBoAWD1h7G62e5cVNNdHaV37l3lHLegpXcWlhHDx6Suzfvl+cwYDVVc/5+dxJdh9EnkAA0LoB6wCj1Uu8tKmm2dj5wn3CcOaUSo8Ba/aTJrj3a6WMjL9a3dis3/n53CY8hQCgdQPWi7y8qabZ2Pm6rxdiv9hjvgpfvtX4+Vwp4+Gqq+zfeaufz+3GkwgACFgU1YcbO28bBVNvMB/a2NmqLIvCqeeEGe8e7Knu9fO5vVkFHgAIWBTVJ1W8ZL9ytOSdqMfmq/deLQb3f3dZE3QP9lTP+PncCD+f68dTCQAIWBTVuDp7SOxPPrcQB+UeA1b07pSKP94rNWG46qp/+/ncIX4+18GTCQCaP2B9xmg1gxc4le3aMi78fs9i+M4zPS7NEEdBHP3nptgft3/cxAErkpD1BZ5MAND8AWuI0epRXuBUxmcPRpWHLwxiv9Rz92BlaRhN+125SbsHVyy7l+FneToBQHMHrLWNVhN5iVPZXVh087h4+cHFcPbzPS/N8P76V+XwsVPn++OGt0LAsnWfn8/tyBMKAJo7ZF3Ni5zK7LY45+wY+FNvWHm4sgpzyuHkExZkaHucNOrPfj63OU8oAGieQDXQaLWp0Wqo0Wofo9WlRqsCL3QqgxWWbz+5EBcXhasMWEvfKgV3HzGvhcKVLbvdzwV+PrceTy0AyE6I6jBa9ZMwtYPR6utGq59La9UdRqsHjVaPG62eM1q9ZbTyeZlTWVtUtPjHAwvhO8+uuvWqK2Dd87VWC1i2Fvj53PdYvgEA+j5YrWW0+oTRaoTR6rdGq8lGq/8YreYarZbZFgFe3lRTdA2ev3s5fHFSEMfRavNVXJhbDh88qdW6CLvqBbtBNE83AGh8qOpvtPqk0Wo/o9V5suzCEqNV2WgV8cKmmi5cnbdr5D9+eXmlswY/NMh9USWc8stFLTKLsKea4Odzm/K0A4DGBKsBRqvtjVbHGq3ulBYqAhXV3OHqN9v5/iMXl+OK6V24soJSHM64qtnXwVpVFfx87nQ/n1uTJx8A1DdcbWO0+pmsYcUAdaolwpUZMzSo3H2micwCP65S+MZ9gT9uuN+iAcvWK34+5/L0A4D6BKsNjFbHGa0eki5AXsxUa7RcnbtL5D9wXjlaOjeIE4gWPFcK7h1pWmgtrJ7qRj+f24gnIQCkF6zsbMDPGa1uN1q9R1cg1UqzBQu/2y3yp1xWiUtLojgpvxCF084L/Nv3i1o4YC3187mjmVUIAOmEq42NVj82Ws00WgW8lKlW2V/QnLVFWLzkc+Xw3+Oi2C8mD1ddrVizHiwGdx1aaeHB7jY8Puznc5vwZASA2sLVzkara4xWJV7IVAvtLRibs7cKS9ePNOHMf/h2s+ZUBMU4nHauL0GkVUNW0c/nTqMVCwCSBSs7Q/AQo9UUWq2oVtu4uXDebpXK3872owUzK3Ha3nu1Ekw+vuDnh7dyyJru53Nb8aQEgOrC1SCj1TdlgVBeyFTr1Jit49KNRxWDF+6pxKWlcX1EcfTuP8vBvSMLLRyw7LGdydMSAHofrtY2Wv3QaDWHFzLVEksv2O7AsUM7t73xn7yuHC1+O4yjKK6rKIyjd/5RDiYdVXi/u7AlZxZOZvFRAOhduFrXaPW/RquFvJypJh+8HpvRm4eFc3cOileM8P0ply+LFr8dxVFQ52S1goUvlsN//KLk3zEi8Mft32pBa76fzx3DkxMAVh2u1jNa/choNZ8XNNWULVWjN4/NqE0jc/ZWxeIl+1fKt51UCp7+q4mW2GAVxn2muCCOXsmb4JFTfP+OEUX/9n3j92cZtkTYusHP5zbgCQoAPYerfkarbxmt3uVlTVXfWlRLbfF+MEpUm9lAZWcDFgu/32tR6ZrDC5WJp4X+k9ctC2c+XozLy+JMMXOiaOakZeH030fh5O+Z4K5D7d6Fdt2s97fY+W8dEHcuVtq5YOnwrAexmX4+tx9PUQD4cLjqkNmCLxMWeqxoJRUbPcRWlKjOHmKDQe01ZuuaqnDebksKF+w1t3DBXvOSVPHS4fPL14+cV77hqGR107GL/L/p2H/g3OpryuVx8NxdcfDS/eXwzanLovmvljIXqnretzCKF79eiub9a1n09iNh9MakOHrumjh67urOCp8aa8JHT53XWQ/97/xg0tHzgruPmBfc/dX5/h0jSv54L15ebrdyYj/fWdH7/9mwkPVzP58byNMUAD4YsOxmzU8SpLrXkKhw/u5+8fKD5hQv//zsnqp09eFzKrefPKcy/pTZlfH/r/qa8JM5/sMXloJpf44T1dQb4+DZCXH41vQ4nP1cHL6bpGbE0byX/WjB66XEtehNu7VMKVo2t9T5n1VWvGx+pTMUVQpVVjGOw0rcEuyA+6C0vMpLgri0sByXFpbi4vxyvOydcrz0rVK09K1ytPi1MHrv5biz5v0rjmbeE0evT4yj1++Oo2evWBY+9ds54dRzZodTzpwT3H/CnODekUv9CQeFdQ5Y9zHYHQA+GK42NFrdYLQKCVVSZw+JSjceZcJ5L4dRaUmwsopLS4O4Ughiv5i8gkoUh0GcuPpyXBEyEs7C5RVWojgoBe9XMYgrJogLc8NoxtXGn3BQPdfkes/P5/bgiQoAy8dd/cxoVSBYLa/C2KF+OGtqxJsbLaP8XuxPPLyeLVi2hewkP58bwJMVAAFLK0f2FiRYrbAQpe0+A1rG4tdj/65D670/4Z1+PjeYJysAuga1up1A1WMXYVy+7QfF8PV/VOLQT9ZtF4VRwqrx/z/qXEW8tkKG+wOXV9RZ75/zD14zcee+ivY/g1IczXsmCKecUfbHe/XetudNP5/bjKcrgHYPWCcYrZYQqFa69EBQuHDvsHjlIXFVdd3XlpVuOnZO+aZjZ5eqrPJN351dzv9ojj/5vNn+g+dXXw/8bnbw6KULwhfuiaOXH4jDlydXX/+5P45mPx9HhUVxZBYmq8KiaFVj11ZXsa1ejW0rhZ2BtpkHtneOmSovHzPlmyCuLHu/yksi27XXWYU5cTz36Tie/UQcz34yjt78ezl64YZ50XPXzo5mXG0Htc8Jp5wx21bw6M8WBg+cEAWTj4+DycfFwb1fszMKwwbMJFzi53Mj/HyugycsgHYNV3bW4MOEqNVuCFz9ukxnbRHZcJa8hgRmzDbJa+zQsHDOjnHhnJ2S13m7xoXzhyWvC/cpFi87cO7KZl+utq4YMad864lzVzcL0580eknw9F+i8PVH42j+q35k5geZHvRvZzyWFvnx0rcq0YIZcTRrchw9f20xnHru3M5Zf/8cNSd44KQ5wf3Hzw7uP26Of+/IZZ3jpjrrsNi/84uxf+cX3q87RkT+hANDf8KBgT/+wMDPO4Gfz0kND99fR+uA5etpNWaphqKfz/3Cz+f68ZQF0I7haqDR6ifMGqT6cP2w1VVv1heL/7uO2Jitw8L5uy8p33L8Mn/aX/xo7kvlzCzfYANfYa4fzZlWiv5zcxROOWNpcM8Ri5evX9XjulVRk67obv/u2/x8rj9PWgDtGLC2Nlo9zcufaskWR6380pVfKPiPXVqOFs3y+y5YBXYPwlL00l/tPoSV4I5DTOc+hJ3b4+RauZ7y87lBPGkBtFu46m+0+o59CfFCplq2Rm8eFcZs45duPLoQzvyH3xl2GhqsXqiE0y8qBX//dtnP5yqdW9+01gbPq6qX/HxuKE9bAO0WsNY3Wj2wvBuGolp5f8QtwuIl+5bDF+4OO2eD1rsrcNk7QTj9okIw6chK56DyzmCVa7d62w5052kLoJ3Cld1v0DVaLeLlS7VPt+GWUfHCT1fCFycFdVuCorwkiGbeGwb3HVPsXAqh9bsBV1Xz/XzuGJ64ANqte/Aqo1XAi5dqu5D1xwML4TvPVlLvDlz0YhBOPcf4d4wI2qgbcFVl/HzulzxxAbRTwNrCaPUsL1yqTSss539ciktL0wlXQTmK3vx7GNx/nO+POyAgWP23Sn4+N5onLoB2CljHGK3m86Kl2nWGYeH3e1SCF+8r1h6uSlH0wg2F4J6vtus4q9XV1TxxAbRTwLqYta+o9p5duFlYmXhaEJeXJQ9XpUVROPVc2yXot/lYq1XVLTxxAbRLuLKzB+/lJUu1eytW8dKcCd/5dylZuFoQhk/91vjjXZ/xVgQsALABax+j1QxeshSlysFzd1a/ZkNxQRhOPbfgj/d8AhQBCwC6AtY3jFYLeLlSdBNuHvuP/SGOg0qCcOVWCE8ELADoHrBO4+VKUe93E1bGnWziwsKg17MFn73C0HJFwAKAFcPVWkarS3m5UlTnmlhx+YYj50VL55Z7s85V9Eq+GNz1P4QrAhYAfChgbWi0+gsvV4rqClhH2YC12oHu0ZxpUTDpyIjZggQsAOgpYG1jtLqflytFVRGwzLt+8MiPy/64AyICE+tgAUBPAWt7o9UjvFwpqpcBK/Tj6PlrKyzHwEruALCqgGWXaHiRlytFvT/IvTzu5GWrGuQezZ/hB5NGVugaZC9CAFhVwBputHqLlytFyTIND5wbxZVCz+mqsiQKp51X9sftHxKWEtV8P587hicvgHYJWLN4uVJUZ8AKgxl3hisf2P6k798xgvWuktfbfj43gicvAAIWRbXR+KvCubssCV+f0nPzVVCMwif0Uj/vEJSS10t+PjeUJy8AAhZFtVH3YOnar5aiBa/1vIz7ov9EwcQv0XpVWz3l53ODePICaIeA9Tmj1au8YKm2r1GbxJW/6TiOeughjMI4+vfli/3xHmOvkpdd0uI2P5/rz5MXQDsErJ2MVo/zgqXau7aMC7/Zrhg8ffPSHluvyoujYPIJFda9qqmKfj73cz+f68eTF0A7BKxtjVYP8oKl2r17sPhHtxy9Pb3Y4+D2N/5m/LsODVj3qqZa7Odzw/18roMnL4B2CFifNFqN4yVLtXfA2iws3XpCJfYLPS4sGj6p7artdA/WVrP8fG4znroA2iVgsdkz1fbdg2bsUN9/5JIlPXcPvhcHj50a+LfvR/dgbeOv/urnc+vy1AXQTiHrC0arF4xWgdHKp6i2qrO3qpRvPXFxtGiW3R7H/1BFYRC9eONS/46DS35+uO/nc1R1Ffj53Gt2/Su6BwG0YyuW3fR5GEW1XY0dOsx/8MJd4yjcPY7jYT3WrId2CyYePszPDx/m53NUdbW7n89t7+dza/G0BQAAAAAAAAAAAAAAAAAAAAAAAAAAAAAAAAAAAAAAAAAAAAAAAAAAAAAAAAAAAAAAAAAAAAAAAAAAAAAAAAAAAAAAaBzH9fo5rtd/hergm2mqc9jRwznsxzcDAEBjXsT2xbu+43pDHNfb0XG9vR3XO8Jxve84rvdtKfs/5xzX281xvW0c19vEcb11+zJ0SQhcq8pasxWDooQpez42c1xvO8f1dndcb0QP5/BLjusNc1xve8f1Npfz3j8jf3+153JQGoHRcb2BCT57YJrXkfx7gxL8HT1d3/2a7NodkMJx16M6+ugZtVYr/xCSe32w43obV1kD2uS6HZTF8y85IYv36YAsXuT2xt/UcT3Hcb0fOK53peN6/3Rc713H9YJVVMlxvX87rne343rnOa430nG9Tzmut04fHMNWjuud5rjeqF7WWY7rHeu43oYt9LD6qON6n3Zc7xuO653ruN79juu94rheeTXncabjeg/Kef++43r7ykOso4+OYx3H9X5Wxbm0pR3X27nGz7U36Leq/NzR8gNk3RSP/wg5nlE11q8c1zvBcb2vSR3quN7+Eqpt+F4rgy+p4XJvjspQ2e/xkykcn3Jc7xS5Znr72faZtlULB6yPOa53puN6tzqud0sv6yZ5znVk6Lo92HG9X9fh2hst72T7bv26/Ch25T37ib74DiQUf6pOx1tLnSXPjwEJ3zlbO663gzQ29E/ji7IpdCfH9X7quN4Ex/VmO64X11BFx/WmO653qVwMGzfwhHuO6y2u8u991H6hLfCQ2kyCwdWO673guF5YwzkMJXDZh9jJcsF1NPh4NnJcb16Cv/3rNX7uRyRoRlV+7q1pXuvyEonrUPYH0Ztyj9r7/RLH9X4oD+wNMnAdD5IXSpyx8m0oTeH4bKv/21V+9mJ5trXkkAzH9T7nuN6cKr+TSH4MrpORY7DX7UU1Pnd7W2V5T09zXO82x/XGOq53pH0HNLj16jvy4zxr96p9fgyqsrdgPzl/D0mjxL0SHneo5UvaTlqdnpKTluZB2htgruN6d8ov53XqfMKTBqxHbPdYk7dY2RanyY7rLarDxWoc13tcfkU38gbuy4A1OUHAuqVJAtbKQpdt5ZzouN4Zjuvt2lfN7NKCOKqFA5b9dT2LgPWBYHJ+wmDyRq0t1ikfxwUNClg9vWvts/JhCRfb1rtLUQLWtzMasEb1tmVeWh5tQ9DTklVOkt6Dn0rji30X7F3tl2PH2RxXp2DVU9lfJzfam6FeD+52C1jyIrLduZMc11vYgHNYkO/qcMf11iZgtVTAWjFQ/0daoPe0Y7gIWASsOp5vJddb0pac0VkYn9THAWvF+3eGBIWNCFirPY5dHNd7TnogrnFcb6oE1fvk2hrvuN4dvW5ckFarKxzXW9bgg7Yn4lkZG7QeAaumY91Axie91Qe/lGyr5BjbR03AasmA1f1+nSXjwIY06iVGwGqfgCXjfv+f/HhLel6eseOQCFgfqiWO6/25XsNfWiFgyfV3rvTQ2Fb7G+TZb8cDvuy43gOO6/3Icb3nV/tekaawA+Qf68uLYJ4MRNsw5RPeFgFLfvFdIWPd+uocVhzXG2cHORKwWjZgdS87JuELjeg2JGC1VcDa0HG9x2o8L7b1/jgC1kp/EN9Vj5DVIgGrv3QLniMTLWwv21+ll2ai1I7SgnXh6v6hL0sSy8IXYMd8XJbyC6nlA5YMNp8gD/ss3Lz/cFxvHwJWywesrvEuJ9oxfwQsAlZK53qktIjXem7G1/u6bNKA1VV3pt3j0CIBa4AE/F9JwLpBhjPZLsN37Fisbs/iq1cVPA6RJq8sfQlFaYnZMKUT3tIBS7p2707w4q93/aPqQYAErGYMWLbmO653dj1fZgSs9ghYcp5vSOnc2O/zUALWKmeF/yHNiWYt1IJ1g7RabSQtWH+RpZtelP/cUmYW/nhl/8gejus9mcEvoWtA3plpDKRt5YAl6frajLRcrewX5BYErJYPWLGM3Ty1jpNVCFjtEbDs9/BSiufn93a6PQFrpbVAuvk7CFgfyAyHyTqe35EGn5/LzPxL5L32f/J/H9bTP7CptHpk9aTH0hR3NAFrpce1pqzHsTTD59COybowzckLBKzMBqxY1uA5ph4r/hOwWj9gyct5TMrnx3brfJqAtcqalNYzuoVmEa4nrXvTZc1Hu6PJJ6Vh6gJpyTrxQ41A8mIeK+Od4ozXtFoHTLdwwDpMxr9k/RzaAPjNFH8hEbCyfb7t7K09CVgErATfwU4y2SrtMaEn99WSDU0SsOwCtwe3QcCqdqFR+675jexcc4cs1v13GZ91Uo+hVJbtfyOlLoEp0jc5Vh5+Y+SPeCilNZjszXFxLem6FQOWbP1zb0p98M/LzL+LpEVstCT3u2TV9jQeDHZdte0IWG0RsOz3c12a2wPVGLBK8gKZVaeamcailgSszu/g+DoFkQfqvXxMHQLWTHmRP7KSeliG+LyeQmOJ7Wn4bR8HrNfl2WafHdfXoW6UrYQGJjh/e0vL/Hcd1ztKFmztWNmYndtqPBmL5A/+mvzi2LCrS0DCzHoy8HqErAb/eo2fZ/c8PISA9d/jGSBbmPg13lAPSQrfW5o+B63Qyrm57Dv4Y/lVWcvn2YX/fpfShssErOrPtb3nvyorE/dUp8k4g6dTatleJJ/XkYGANU0m8xwgISbtOiCN7pV2D1iO6308hXfTqkL24X20N1/SgPUHWYNpO+me6ql2lWf04fLj+N81fEcTU7qOkwasvON6Q+U5u36dalC9T/bIBHs7dW/tmC5dUx/r5eetIxfA+BpXhr/cfkEErP+2XtXSjG7P/+l28HlvxsrIfkxDZbDo/Bo+99k0ZhUSsKoOWPblMqoX4/nWl7XUviRjMpbU+FL7e5qzChMGrEjW6vpIEwSMdg9YB6Zwza3qOri5HgtZ1zFg/bqaDdflHt5DQmqSH8O2N2poHwasmxu1P3G9TvT6MuMsabiyG93ulfCzN5Pl5is1DHjfM+Fnt0zAkov3WzV8j29IM+fABJ+9rgzqm1PDWJWfE7D6JGCNrvIa+4iMm/tXDct/2Hv2ixkIWJMJWJk/9nXkR3Q9l5qZX6+1+eoUsEZVE7C6fd7OskROtd/PC3Zj4z4MWLc0e8DaT/p144Tpdq8aP38TCVl+woCXaNmGFgtYg6V1IUrYcvXdWmZ4ycPipBpClp25uiUBK7sBq9vn2O0iPuu43hM1tBpcRsAiYPXi2HeQQF7tlk1hlT/w/tDowe6NDljymWcm2GbIzoo7gICV7KD7ybidpK0eac0w2ELG/iQJCI8l6XJosYA1LOEKx7bF64yU1hVbS/ZpSjJWx07jdwlY2Q9Y3e6d/WVoQJzwnh1CwCJgrebdNKbKISRF6VF5rcrvy252vFUbBCwnwbVEwKrhoO0AwpsSvpjPTyv1ywN7hCxulmRvqT0TfmbTB6xuG6Am2WvwoTQX/JSgnHQc2Ck1tqIRsBoUsLp95vcSzgpObSVtAlbLBqxNZCJCNcdtZz5/UWY6Vzvz/WdtELB2cVzvlSYMWJ/o9q5LqzoacZJ3kC+w2gfkm3amYMp/i53JeKVc7IurqDkyjbejys9rlYDVX0JymCAkn5DyjK4OGY9lElxTdif3jQhYTRWwPi5d00m6CX9KwCJgreK4j0sQ3m+UZ9BPEyy0bCdfbNLiAeuQBF2ufT0Ga7rs/Wd/gP8kpfqpDIvZqN4nef8Es/jqsp7NGstXkj9QHg69LSfJ+J0WCljrJuyqmZ7GQog9/D1bJtzS4olauo0IWI0PWPK533dc770E3/vv0ggANSzT8KSMPx2WYu0ua+EMTPG8tl3AkjGld1Z5zPbeP0r+/3dM8AyaXeuzoAkC1qgEPR1TbctXHwasQP7mNKssK/nvUu+TfELCAz6mXoMCJfhUVTV8TisErE85rvdqghfM1fWYniwzfy5LEDjeraVVlIDVZwFr5wTdDrFsmrpBHwasSJ5lfoqV+uKVbRqwDk1wzE92LRMkL/NrE7zb/lTPjcn7MmDJe2JagvvkvpTu06yt5G6fWbvW+ySfleCA7Zoke6zR5FooYB0sK1L3SRdND3/PANmCotoHR01bixCw+ixgDUo4/fueWmeOrpHNrXIeJmDV/APtogQLFo/p+tEvz3YnwbPdvnQ/20oBS9bBOkh2+Kh2pr792y5O6XjbMmBdneAE26bXbQlYmTmOIxPMILTHfGwd/6bhCW4ke/PvTsBquoDVXxYDrPY58qgdA0rAImCtcLx7yay+alu/P7XCv7OBzFat9vz9qu4re9cWsP5oJ3XJau2rqn0l0FyVsIejq9v0ywSs5Ad9ZYITbJfd34aAlZnjGJkgYNktS75dx79pWIJfS4EcS7+En0nA6ruAdV2CB2cq9xEBq3UCljyTT6ryXopklfLBK/xbA2VAc7XXpd0fdesMB6yFEpheWU29IbPya1mk9bG0JoIQsAhY7RawvkXAImARsAhYGXqWbSnfX7XX8Zd7OlbZE7faPW8rsitG/zofa9KA1ahaIsuwdKR0vG0ZsK6ii7AtuwjtFObj6/g37UsXIV2EvViDbTsCFgGr2/P48ARLvNjdRNRK/s2POq73fwnGp06q92D3jAesSJa8WC/F423LgPXbBCeYQe7ZCliHyhiEai+wM+r09yS9kRjk3pwBK+kg93GO632SgEXAkuNcz3G92xPcR79Y1bIY0rpV7TIiC2SQfEcdjzfLAeuJFce0EbCSHfQPsrZMAwGr6uPYM8HWELFMY/5InR4c5yd4cMys5XttwoB1c5sv03BlGmvpEbBaJmDtm+D+ndm1yvjKlu+xa+slWAw3kOdj/zoeb1YDlh2Dlkv7/d6uAetg6XOutvnw+jotNNohJ6KaSrTsfQsFrA1lXFyShUZ3r8Pf87GE662stKm/zgHrOykErAcTBCzberxOCwSsE2VMX7Xf+9kpHTcBq8kDljzHL0jwLrLP4iOktamnRahdqZsSvoD3rOMxZy1gBTKz16lH40kNAaskLYrzUqwFEiR3qveFvYvMNqj2ZNgxPzun/LfY9U8+b194ciJ6W0cnaQlosa1y7kx4U51Uh61yviTdyElaNNavMWAl2fD6rFqmZUugfCHB5yZekTkrAUu6dW5NcOx2DOBxLRyw0tzfsx0C1jaysna133W5F1upvZdwA/rOtbXaJGDNlvHY29dxAfGkAWu8/F0fk2d8WrVBvScydG1Nc0fCzZ4vtouYpdxE/JpccEEvK5RFNrdOGAZaZbPnMxM+RB5Lc0qyXLR3JZwa/INaXgjy2Uke0nfWMhZItkdJ0oLzM7soa5MHrCMTjv9LZX+zGgPWIrn+H06x7L93Scpdv+0QsH4ue9BmbSxSqmE5gwFrvuN6E+0wiTR/7KUcsFIdq9roC9uu8vrLDCxCtrHjevkEL+auGR+D2zVgybHsl3A/OHtzn5PWwnqO6/0owffZdS25NX72YFmtOEowoPXTNYTbXycMt0enfA00NGDJYoZTEj47JqY1S6uGzZ4fkz3rNk+xtpBnWf8Uz2tLByzH9T7huN7fMrpUwXtptbRmNGDZFQE+08CelvYKWHLgB8oLLskJsvs/7VXj59vNiscmfEkF0s01IMHntlLASrpqcVfA+G4tLwX5Lg9NONje1gTbmppCF/MVCQJWKFtzrJ3gM4dIX361x2sXC/x8MwYsOdc7S8tfkpbKgm1xTfG4kwasyfWY5FGHe7vVA5ZtPZmT0YAVy3IFG2YoYEUr6c1Jci/amdvnJmmgIGD1/sA3kdajOGELyIM1tADYMRyjE7a+2Hre/gqtIRS0SsBKumpxV70hIWtgwlacLziu92LCz66ksS+i3MAnJPwO5slg2f5VfJ79YfAbCQzVfp7doX63ZgpYcr/YY/6ihMqk19orSZ8XBKzWClgyQeSqDIerWMLfQRkKWHZM0vErjEM+VlqTo4Rd5V+u96oAbRuw5OC/X0MfeChjKo7qbdKXDYF3kkXgaul7Pz/pYmg1BKyH01ggsQ7n0HZ3vFzjg8QO+N6qN0FDvr9NJdT8p4bP/Wcae9KtsXwcXzHh32FnYh7Sm5YsGXA5OmF3qK2/pP2ruB4BS87xetL95cmK7fNrONf2F/OlSYI8AavqgJVrgoD12Rp+mDWyzklzxm+NAWu0tNb3W2E2vZ3991YN616pOp/rpAHr5lYIWHbswAMp9Fff4LjeV2TU/0e73+ByQdkH9T4ywPeZvuw/riFgPSPrgO0nD7+0ar9apnfL9/vrGr/TiqywfZIM3v5495ehfGcbyOzTb8hYmnINn5d2d9EQ6bZO+vfMkpC5v7TsDlihxWqItNZdn2DF6e4v91/W4R6+JcG5vq6H6/gAGTbwFbkOLpDp20tr3Ncslm1L9kj5uAlYHy77o/WUlJ9PwyW0bZ/G5Aw5b2c2QbiKJQTulJGA1ePsY/k+z0j4PLbPgj/Us6uwhoBle9eGSmvn+nWqder+Y0S6iBamcDEulm40u1DbGLkgfi3jXO6Si7XWgX1luTkH9EHAKsmYtVkp1yvSGlTLTLpdE44J6mls279kCv7v5BzaOltC9JMpzfqx48a2SvEaXluuuVq3iZgpN/YF3Y7bju+6r8YWnK6H9QEZCFiRXPs9XYvz6rAgYEVeAGsSsOoesEI5h2k/o+xz78I0vjdpKX+6SQJWKLOcB2Q1YHVrKJmY8BgX1nn7tKQB63V5tl0nP2zTrhvk3A6u9408WPrD/Sa44O2sky1rPN6kAateVZRxVP1qPKZjE64H1eiaK2tmdaR8Hdtz+maGj/vPac3arDFgNbrurMeUdwJWw+v6Wtar6/ay/U6TvGu66vFaj7veAUv+3YMS7qzQNTZ094wFrEbUbba3phE38041drE0omzrwsEpHGvLBaw1lm9w+scEqyI3sirS0rR2Ha7hjSTEZPG437GzLet072Y5YM2oR6sdAatpA5Z9Rt2doMu5LIsYL66xkozTtF3kX03rB2EdA1bX/VBK2Hp/WZpBskkCVmMG0svAuf+pYbp9IxZG+3FKYwBaMmDJsdk+67+nMGamXuHqljS3E+nh+O2OAK9msJvhr/Va0C/DAevNWvd7JGC1TsCS566bcDjKZXJvuyvZGmd15cpg8LEJXvSRzOBbO8sBq1tX4d01jKU+Ps3uUALWB7+IgdJ8m7W1SeyYgtNTXBSzlQOWPbbPpDQeK+2yN/7QOl/D/WXcVDFDx/1svZrfMxqwIpld+r20H9YErKYOWANkPE21L1q7Y4ezxko2du5tdRur+kTCHwu5rAesNZbvM/xGwnP8YppLqRCwPvxlrCstRe9kKFydlnRJhnYLWN1aIx1ZBiELx1eWcNWolYM3kwVMs7DX19uyoGL/NglYkazLM6Ke4YqA1ZQBa/eEPSSpTdeXkHdOwmVGLmiSgDWwxq7Cm9LabYGA1fMXsp68FF7p44O3a3v8b9qj/Fs9YHW7qPesYdXtNMOVna2xTYOv4U/JQrh9GbLek2VJ1q7zsWYlYBlpodij3osXErCaMmCdnWApATv+6fspf68jZIZatcdvewV2znrAWmP5IuJ317Djwo9T/MFPwFrJl/JZWSOr1OCDtr8WpstMs3oMhm75gNXtWDeXdU4W9UFLxhyZnr9JH1y/HRKy7u6jQf/2l/rJDdqKoq8DVkU22z7RTjRo4DkmYDVJwJKlGR5JuCVb2utQrSst3EmCxw+bJGB1veOSLkBqu/j3J2A1prtljLwwgga8lN+RdYe2rle3SjsFrDWW79X3TekyNA1qyfibfMdr9vFLyg76/L0sDdGIlrySfM+H1LuLLAMBa7HMEvy1vEAHNPjcErCaJ2B9N8HzNkirW66Hv+d7CX903lPryueNCFjdPueXNSwIXfM+sQSs3n9B+0nz/+t16HYJJViNk9WyB9X5eNoqYHU7Zhs2tON60+o0CHyxrBlzakPWFqnuF+uRjutNSmGx0FUFq+kyS2mbRm5V0uCAVZSBsONltfet6jm+jIDV/AHLbg0lW0QlGSLi1em7HSL3a7V/0wLH9Q5rhoAln6VkmEjS3TZOr/VHMgGr91/U2rKY2VhZibuQwsPaXuSXSHfgxg06jiwGrJ82aNxKP9nu5ieyYvm8FMLxTBkYaVej3yGr+6BJa+wxstPAKyn9ULBTzu+X3QWGNboVp84BK5CWv2fl1+wl0u1pf2x9LAPnc5Dsz1ZtwHqwSQJWTiZJNHvAOiThAsj3pjm5qYfn4JiErTt2Ue4NarxuL0q4F+GghN//azUMdTioxu+6a3HZLAasWzO336HMxNhB9iz7lbyoX5SxGMEqqiwvNrtO07mO642UcTLr9MExbCWzE0dloM6QpRU6GvwdbCJry/zQcb0/yfTlZas5h4G0NtpusCtls3C70fLGWd9gtttxf1TGFx4r23/cI9dlcTXHXZEtQ+xYkmtkIOjB0p09oA+P5whpmUzrejxFNnD/ivwQ2VM2914rg8+h4bKHZDXH962sHcsqWh9OkRdrXz+jtPwITvKC3yvBMZwp115HHb/f7aULrZq/a7SsFVXrchUHS9d6bz/3LLnWByT4vDXlGZHkvI9O+rkrNGh8qsrjbUSNlu9lnSw/BAbJi3oH2cz5CHnpntitvi+zEm2I2NFudSMzFTv68O/uJ397VqovX9D9pRl/G5kBNmKF89d1Dr8tyz/sIqFig77qHkqxJXOwTATYUY7dBs7jeriGv+y43t6yjs4Q+b76Z+Q4BqZ8LfZvonM4IMHxrdkkx9ZPukGz8owa2ODrs38D7v8k3+9atb67El63A2p8xie9ltI43v4Ze9/+95puloYBAAAAAAAAAAAAAAAAAAAAAAAAAAAAAAAAAAAAAAAAAAAAAAAAAAAAAAAAAAAAAAAAAAAAAAAAAAAAAAAAAAAAAAAAAAAAAAAAAAAAAAAAAAAAAAAAAAAAAAAAAAAAAAAAAAAAAAAAAAAAAAAAAAAAAAAAAAAAAAAAAAAAAAAAAAAAAAAAAAAAAAAAAAAAAAAAAAAAAAAAAAAAAAAAAAAAAAAAAAAAAAAAAAAAAAAAAAAAAAAAAAAAAAAAAAAAAAAAAAAAAAAAAAAAAI32/wEtjl3LSSgA8QAAAABJRU5ErkJggg==" vertex="1" parent="1">
          <mxGeometry x="250" y="180" width="133.33" height="70" as="geometry" />
        </mxCell>
        <mxCell id="L8OgLo_UH3lC8fWBD7sV-55" style="edgeStyle=orthogonalEdgeStyle;rounded=0;orthogonalLoop=1;jettySize=auto;html=1;" edge="1" parent="1" source="L8OgLo_UH3lC8fWBD7sV-4">
          <mxGeometry relative="1" as="geometry">
            <mxPoint x="575" y="214.9999999999999" as="targetPoint" />
          </mxGeometry>
        </mxCell>
        <mxCell id="L8OgLo_UH3lC8fWBD7sV-4" value="" style="outlineConnect=0;dashed=0;verticalLabelPosition=bottom;verticalAlign=top;align=center;html=1;shape=mxgraph.aws3.cognito;fillColor=#AD688B;gradientColor=none;" vertex="1" parent="1">
          <mxGeometry x="691.75" y="168.5" width="76.5" height="93" as="geometry" />
        </mxCell>
        <mxCell id="L8OgLo_UH3lC8fWBD7sV-11" style="edgeStyle=orthogonalEdgeStyle;rounded=0;orthogonalLoop=1;jettySize=auto;html=1;" edge="1" parent="1" source="L8OgLo_UH3lC8fWBD7sV-7" target="L8OgLo_UH3lC8fWBD7sV-8">
          <mxGeometry relative="1" as="geometry" />
        </mxCell>
        <mxCell id="L8OgLo_UH3lC8fWBD7sV-32" style="edgeStyle=orthogonalEdgeStyle;rounded=0;orthogonalLoop=1;jettySize=auto;html=1;" edge="1" parent="1" source="L8OgLo_UH3lC8fWBD7sV-7" target="L8OgLo_UH3lC8fWBD7sV-29">
          <mxGeometry relative="1" as="geometry" />
        </mxCell>
        <mxCell id="L8OgLo_UH3lC8fWBD7sV-60" style="edgeStyle=orthogonalEdgeStyle;rounded=0;orthogonalLoop=1;jettySize=auto;html=1;" edge="1" parent="1" source="L8OgLo_UH3lC8fWBD7sV-7" target="L8OgLo_UH3lC8fWBD7sV-57">
          <mxGeometry relative="1" as="geometry" />
        </mxCell>
        <mxCell id="L8OgLo_UH3lC8fWBD7sV-61" style="edgeStyle=orthogonalEdgeStyle;rounded=0;orthogonalLoop=1;jettySize=auto;html=1;" edge="1" parent="1" source="L8OgLo_UH3lC8fWBD7sV-7" target="L8OgLo_UH3lC8fWBD7sV-56">
          <mxGeometry relative="1" as="geometry" />
        </mxCell>
        <mxCell id="L8OgLo_UH3lC8fWBD7sV-75" style="edgeStyle=orthogonalEdgeStyle;rounded=0;orthogonalLoop=1;jettySize=auto;html=1;entryX=0.5;entryY=1;entryDx=0;entryDy=0;" edge="1" parent="1" source="L8OgLo_UH3lC8fWBD7sV-7" target="L8OgLo_UH3lC8fWBD7sV-68">
          <mxGeometry relative="1" as="geometry">
            <Array as="points">
              <mxPoint x="560" y="330" />
              <mxPoint x="1005" y="330" />
            </Array>
          </mxGeometry>
        </mxCell>
        <mxCell id="L8OgLo_UH3lC8fWBD7sV-7" value="Amazon EC2" style="outlineConnect=0;fontColor=#232F3E;gradientColor=none;strokeColor=#ffffff;fillColor=#232F3E;dashed=0;verticalLabelPosition=middle;verticalAlign=bottom;align=center;html=1;whiteSpace=wrap;fontSize=10;fontStyle=1;spacing=3;shape=mxgraph.aws4.productIcon;prIcon=mxgraph.aws4.ec2;" vertex="1" parent="1">
          <mxGeometry x="495" y="370" width="80" height="100" as="geometry" />
        </mxCell>
        <mxCell id="L8OgLo_UH3lC8fWBD7sV-12" style="edgeStyle=orthogonalEdgeStyle;rounded=0;orthogonalLoop=1;jettySize=auto;html=1;" edge="1" parent="1" source="L8OgLo_UH3lC8fWBD7sV-8" target="L8OgLo_UH3lC8fWBD7sV-10">
          <mxGeometry relative="1" as="geometry" />
        </mxCell>
        <mxCell id="L8OgLo_UH3lC8fWBD7sV-37" style="edgeStyle=orthogonalEdgeStyle;rounded=0;orthogonalLoop=1;jettySize=auto;html=1;entryX=0.5;entryY=1;entryDx=0;entryDy=0;entryPerimeter=0;" edge="1" parent="1" source="L8OgLo_UH3lC8fWBD7sV-8" target="L8OgLo_UH3lC8fWBD7sV-7">
          <mxGeometry relative="1" as="geometry" />
        </mxCell>
        <mxCell id="L8OgLo_UH3lC8fWBD7sV-40" style="edgeStyle=orthogonalEdgeStyle;rounded=0;orthogonalLoop=1;jettySize=auto;html=1;" edge="1" parent="1" source="L8OgLo_UH3lC8fWBD7sV-8" target="L8OgLo_UH3lC8fWBD7sV-39">
          <mxGeometry relative="1" as="geometry" />
        </mxCell>
        <mxCell id="L8OgLo_UH3lC8fWBD7sV-8" value="Amazon EC2" style="outlineConnect=0;fontColor=#232F3E;gradientColor=none;strokeColor=#ffffff;fillColor=#232F3E;dashed=0;verticalLabelPosition=middle;verticalAlign=bottom;align=center;html=1;whiteSpace=wrap;fontSize=10;fontStyle=1;spacing=3;shape=mxgraph.aws4.productIcon;prIcon=mxgraph.aws4.ec2;" vertex="1" parent="1">
          <mxGeometry x="495" y="550" width="80" height="100" as="geometry" />
        </mxCell>
        <mxCell id="L8OgLo_UH3lC8fWBD7sV-38" style="edgeStyle=orthogonalEdgeStyle;rounded=0;orthogonalLoop=1;jettySize=auto;html=1;" edge="1" parent="1" source="L8OgLo_UH3lC8fWBD7sV-10" target="L8OgLo_UH3lC8fWBD7sV-8">
          <mxGeometry relative="1" as="geometry" />
        </mxCell>
        <mxCell id="L8OgLo_UH3lC8fWBD7sV-50" style="edgeStyle=orthogonalEdgeStyle;rounded=0;orthogonalLoop=1;jettySize=auto;html=1;entryX=0.625;entryY=1;entryDx=0;entryDy=0;entryPerimeter=0;" edge="1" parent="1" source="L8OgLo_UH3lC8fWBD7sV-10" target="L8OgLo_UH3lC8fWBD7sV-44">
          <mxGeometry relative="1" as="geometry">
            <mxPoint x="1040" y="480" as="targetPoint" />
          </mxGeometry>
        </mxCell>
        <mxCell id="L8OgLo_UH3lC8fWBD7sV-10" value="Amazon DynamoDB" style="outlineConnect=0;fontColor=#232F3E;gradientColor=none;strokeColor=#ffffff;fillColor=#232F3E;dashed=0;verticalLabelPosition=middle;verticalAlign=bottom;align=center;html=1;whiteSpace=wrap;fontSize=10;fontStyle=1;spacing=3;shape=mxgraph.aws4.productIcon;prIcon=mxgraph.aws4.dynamodb;" vertex="1" parent="1">
          <mxGeometry x="495" y="750" width="80" height="110" as="geometry" />
        </mxCell>
        <mxCell id="L8OgLo_UH3lC8fWBD7sV-15" value="cognito" style="text;html=1;align=center;verticalAlign=middle;resizable=0;points=[];autosize=1;" vertex="1" parent="1">
          <mxGeometry x="705" y="261.5" width="50" height="20" as="geometry" />
        </mxCell>
        <mxCell id="L8OgLo_UH3lC8fWBD7sV-17" value="APP SERVER" style="text;html=1;align=center;verticalAlign=middle;resizable=0;points=[];autosize=1;" vertex="1" parent="1">
          <mxGeometry x="400" y="390" width="90" height="20" as="geometry" />
        </mxCell>
        <mxCell id="L8OgLo_UH3lC8fWBD7sV-18" value="WEB SERVER" style="text;html=1;align=center;verticalAlign=middle;resizable=0;points=[];autosize=1;" vertex="1" parent="1">
          <mxGeometry x="390" y="590" width="100" height="20" as="geometry" />
        </mxCell>
        <mxCell id="L8OgLo_UH3lC8fWBD7sV-19" value="DATABASE" style="text;html=1;align=center;verticalAlign=middle;resizable=0;points=[];autosize=1;" vertex="1" parent="1">
          <mxGeometry x="405" y="780" width="80" height="20" as="geometry" />
        </mxCell>
        <mxCell id="L8OgLo_UH3lC8fWBD7sV-22" style="edgeStyle=orthogonalEdgeStyle;rounded=0;orthogonalLoop=1;jettySize=auto;html=1;" edge="1" parent="1" target="L8OgLo_UH3lC8fWBD7sV-7">
          <mxGeometry relative="1" as="geometry">
            <mxPoint x="535" y="270" as="sourcePoint" />
          </mxGeometry>
        </mxCell>
        <mxCell id="L8OgLo_UH3lC8fWBD7sV-54" style="edgeStyle=orthogonalEdgeStyle;rounded=0;orthogonalLoop=1;jettySize=auto;html=1;entryX=0;entryY=0.5;entryDx=0;entryDy=0;entryPerimeter=0;" edge="1" parent="1" target="L8OgLo_UH3lC8fWBD7sV-4">
          <mxGeometry relative="1" as="geometry">
            <mxPoint x="575" y="214.9999999999999" as="sourcePoint" />
          </mxGeometry>
        </mxCell>
        <mxCell id="L8OgLo_UH3lC8fWBD7sV-35" style="edgeStyle=orthogonalEdgeStyle;rounded=0;orthogonalLoop=1;jettySize=auto;html=1;" edge="1" parent="1" source="L8OgLo_UH3lC8fWBD7sV-29" target="L8OgLo_UH3lC8fWBD7sV-7">
          <mxGeometry relative="1" as="geometry" />
        </mxCell>
        <mxCell id="L8OgLo_UH3lC8fWBD7sV-45" style="edgeStyle=orthogonalEdgeStyle;rounded=0;orthogonalLoop=1;jettySize=auto;html=1;" edge="1" parent="1" source="L8OgLo_UH3lC8fWBD7sV-29" target="L8OgLo_UH3lC8fWBD7sV-44">
          <mxGeometry relative="1" as="geometry" />
        </mxCell>
        <mxCell id="L8OgLo_UH3lC8fWBD7sV-29" value="Amazon API Gateway" style="outlineConnect=0;fontColor=#232F3E;gradientColor=none;strokeColor=#ffffff;fillColor=#232F3E;dashed=0;verticalLabelPosition=middle;verticalAlign=bottom;align=center;html=1;whiteSpace=wrap;fontSize=10;fontStyle=1;spacing=3;shape=mxgraph.aws4.productIcon;prIcon=mxgraph.aws4.api_gateway;" vertex="1" parent="1">
          <mxGeometry x="710" y="365" width="80" height="110" as="geometry" />
        </mxCell>
        <mxCell id="L8OgLo_UH3lC8fWBD7sV-41" style="edgeStyle=orthogonalEdgeStyle;rounded=0;orthogonalLoop=1;jettySize=auto;html=1;" edge="1" parent="1" source="L8OgLo_UH3lC8fWBD7sV-30" target="L8OgLo_UH3lC8fWBD7sV-39">
          <mxGeometry relative="1" as="geometry" />
        </mxCell>
        <mxCell id="L8OgLo_UH3lC8fWBD7sV-30" value="Amazon S3" style="outlineConnect=0;fontColor=#232F3E;gradientColor=none;strokeColor=#ffffff;fillColor=#232F3E;dashed=0;verticalLabelPosition=middle;verticalAlign=bottom;align=center;html=1;whiteSpace=wrap;fontSize=10;fontStyle=1;spacing=3;shape=mxgraph.aws4.productIcon;prIcon=mxgraph.aws4.s3;" vertex="1" parent="1">
          <mxGeometry x="920" y="550" width="80" height="100" as="geometry" />
        </mxCell>
        <mxCell id="L8OgLo_UH3lC8fWBD7sV-42" style="edgeStyle=orthogonalEdgeStyle;rounded=0;orthogonalLoop=1;jettySize=auto;html=1;" edge="1" parent="1" source="L8OgLo_UH3lC8fWBD7sV-39" target="L8OgLo_UH3lC8fWBD7sV-30">
          <mxGeometry relative="1" as="geometry" />
        </mxCell>
        <mxCell id="L8OgLo_UH3lC8fWBD7sV-43" style="edgeStyle=orthogonalEdgeStyle;rounded=0;orthogonalLoop=1;jettySize=auto;html=1;" edge="1" parent="1" source="L8OgLo_UH3lC8fWBD7sV-39" target="L8OgLo_UH3lC8fWBD7sV-8">
          <mxGeometry relative="1" as="geometry" />
        </mxCell>
        <mxCell id="L8OgLo_UH3lC8fWBD7sV-39" value="Amazon Cloudfront" style="outlineConnect=0;fontColor=#232F3E;gradientColor=none;strokeColor=#ffffff;fillColor=#232F3E;dashed=0;verticalLabelPosition=middle;verticalAlign=bottom;align=center;html=1;whiteSpace=wrap;fontSize=10;fontStyle=1;spacing=3;shape=mxgraph.aws4.productIcon;prIcon=mxgraph.aws4.cloudfront;" vertex="1" parent="1">
          <mxGeometry x="720" y="545" width="80" height="110" as="geometry" />
        </mxCell>
        <mxCell id="L8OgLo_UH3lC8fWBD7sV-46" style="edgeStyle=orthogonalEdgeStyle;rounded=0;orthogonalLoop=1;jettySize=auto;html=1;" edge="1" parent="1" source="L8OgLo_UH3lC8fWBD7sV-44" target="L8OgLo_UH3lC8fWBD7sV-29">
          <mxGeometry relative="1" as="geometry" />
        </mxCell>
        <mxCell id="L8OgLo_UH3lC8fWBD7sV-49" style="edgeStyle=orthogonalEdgeStyle;rounded=0;orthogonalLoop=1;jettySize=auto;html=1;" edge="1" parent="1" source="L8OgLo_UH3lC8fWBD7sV-44" target="L8OgLo_UH3lC8fWBD7sV-10">
          <mxGeometry relative="1" as="geometry">
            <mxPoint x="850" y="810" as="targetPoint" />
            <Array as="points">
              <mxPoint x="1040" y="805" />
            </Array>
          </mxGeometry>
        </mxCell>
        <mxCell id="L8OgLo_UH3lC8fWBD7sV-44" value="AWS Lambda" style="outlineConnect=0;fontColor=#232F3E;gradientColor=none;strokeColor=#ffffff;fillColor=#232F3E;dashed=0;verticalLabelPosition=middle;verticalAlign=bottom;align=center;html=1;whiteSpace=wrap;fontSize=10;fontStyle=1;spacing=3;shape=mxgraph.aws4.productIcon;prIcon=mxgraph.aws4.lambda;" vertex="1" parent="1">
          <mxGeometry x="990" y="370" width="80" height="100" as="geometry" />
        </mxCell>
        <mxCell id="L8OgLo_UH3lC8fWBD7sV-52" value="" style="outlineConnect=0;dashed=0;verticalLabelPosition=bottom;verticalAlign=top;align=center;html=1;shape=mxgraph.aws3.virtual_private_cloud;fillColor=#F58534;gradientColor=none;" vertex="1" parent="1">
          <mxGeometry x="180" y="70" width="60" height="40" as="geometry" />
        </mxCell>
        <mxCell id="L8OgLo_UH3lC8fWBD7sV-58" style="edgeStyle=orthogonalEdgeStyle;rounded=0;orthogonalLoop=1;jettySize=auto;html=1;" edge="1" parent="1" source="L8OgLo_UH3lC8fWBD7sV-56" target="L8OgLo_UH3lC8fWBD7sV-7">
          <mxGeometry relative="1" as="geometry" />
        </mxCell>
        <mxCell id="L8OgLo_UH3lC8fWBD7sV-56" value="Amazon SNS" style="outlineConnect=0;fontColor=#232F3E;gradientColor=none;strokeColor=#ffffff;fillColor=#232F3E;dashed=0;verticalLabelPosition=middle;verticalAlign=bottom;align=center;html=1;whiteSpace=wrap;fontSize=10;fontStyle=1;spacing=3;shape=mxgraph.aws4.productIcon;prIcon=mxgraph.aws4.sns;" vertex="1" parent="1">
          <mxGeometry x="218" y="330" width="70" height="90" as="geometry" />
        </mxCell>
        <mxCell id="L8OgLo_UH3lC8fWBD7sV-59" style="edgeStyle=orthogonalEdgeStyle;rounded=0;orthogonalLoop=1;jettySize=auto;html=1;" edge="1" parent="1" source="L8OgLo_UH3lC8fWBD7sV-57" target="L8OgLo_UH3lC8fWBD7sV-7">
          <mxGeometry relative="1" as="geometry">
            <Array as="points">
              <mxPoint x="390" y="489" />
              <mxPoint x="390" y="420" />
            </Array>
          </mxGeometry>
        </mxCell>
        <mxCell id="L8OgLo_UH3lC8fWBD7sV-57" value="" style="shape=image;html=1;verticalAlign=top;verticalLabelPosition=bottom;labelBackgroundColor=#ffffff;imageAspect=0;aspect=fixed;image=https://cdn3.iconfinder.com/data/icons/lexter-flat-colorfull-file-formats/56/ses-128.png" vertex="1" parent="1">
          <mxGeometry x="210" y="450" width="78" height="78" as="geometry" />
        </mxCell>
        <mxCell id="L8OgLo_UH3lC8fWBD7sV-64" style="edgeStyle=orthogonalEdgeStyle;rounded=0;orthogonalLoop=1;jettySize=auto;html=1;entryX=1;entryY=0.5;entryDx=0;entryDy=0;" edge="1" parent="1" source="L8OgLo_UH3lC8fWBD7sV-62" target="L8OgLo_UH3lC8fWBD7sV-51">
          <mxGeometry relative="1" as="geometry" />
        </mxCell>
        <mxCell id="L8OgLo_UH3lC8fWBD7sV-62" value="" style="outlineConnect=0;fontColor=#232F3E;gradientColor=#F34482;gradientDirection=north;fillColor=#BC1356;strokeColor=#ffffff;dashed=0;verticalLabelPosition=bottom;verticalAlign=top;align=center;html=1;fontSize=12;fontStyle=0;aspect=fixed;shape=mxgraph.aws4.resourceIcon;resIcon=mxgraph.aws4.cloudwatch_2;" vertex="1" parent="1">
          <mxGeometry x="1300" y="426" width="98" height="98" as="geometry" />
        </mxCell>
        <mxCell id="L8OgLo_UH3lC8fWBD7sV-65" value="CLOUDWATCH" style="text;html=1;align=center;verticalAlign=middle;resizable=0;points=[];autosize=1;" vertex="1" parent="1">
          <mxGeometry x="1298" y="524" width="100" height="20" as="geometry" />
        </mxCell>
        <mxCell id="L8OgLo_UH3lC8fWBD7sV-67" value="USER" style="text;html=1;align=center;verticalAlign=middle;resizable=0;points=[];autosize=1;" vertex="1" parent="1">
          <mxGeometry x="68.75" y="250" width="50" height="20" as="geometry" />
        </mxCell>
        <mxCell id="L8OgLo_UH3lC8fWBD7sV-74" style="edgeStyle=orthogonalEdgeStyle;rounded=0;orthogonalLoop=1;jettySize=auto;html=1;" edge="1" parent="1" source="L8OgLo_UH3lC8fWBD7sV-68" target="L8OgLo_UH3lC8fWBD7sV-7">
          <mxGeometry relative="1" as="geometry">
            <Array as="points">
              <mxPoint x="1005" y="330" />
              <mxPoint x="560" y="330" />
            </Array>
          </mxGeometry>
        </mxCell>
        <mxCell id="L8OgLo_UH3lC8fWBD7sV-68" value="" style="rounded=1;whiteSpace=wrap;html=1;" vertex="1" parent="1">
          <mxGeometry x="860" y="120" width="290" height="170" as="geometry" />
        </mxCell>
        <mxCell id="L8OgLo_UH3lC8fWBD7sV-69" value="Build and Deployed to EC2 server" style="text;html=1;align=center;verticalAlign=middle;resizable=0;points=[];autosize=1;" vertex="1" parent="1">
          <mxGeometry x="905" y="260" width="200" height="20" as="geometry" />
        </mxCell>
        <mxCell id="L8OgLo_UH3lC8fWBD7sV-70" value="" style="shape=image;verticalLabelPosition=bottom;verticalAlign=top;imageAspect=0;aspect=fixed;image=data:image/png,iVBORw0KGgoAAAANSUhEUgAAAPEAAADRCAMAAAAquaQNAAAAV1BMVEX///9h2vtU2PtT2Pv4/f9r3Pvk+P77/v9m2/vs+v6+7v3p+f7I8f3V9P6R5Px94PyI4vyt6v2c5vy47f3D8P3e9v6i6PzX9f7P8/5/4PyM4/yq6v3y+/9QWmeRAAARHUlEQVR4nOUd6ZqqOmwsu6KAisvo+z/nEReStCk0LTAz38mve89AbWj2rV9fwXBuvvPVC/L6VhbhKyIoylvdr/7dnCdd3As2p5VSKwRK5bsynmTtuNzl+uKr02aStX3hvqM76je2Cz+M7bdt7fsEO/eEQ8Rs6b2xVRNy0PdmxaH7gugwGQYyiCv7pp6HcfJl6eLEHi8sXU3DNkLYDO3pjfPeZ2fxfhjfJ/wAN2/Gd/WA6JYJ181udlbBX3NxlAuXbXU7W5WidcsB/qUwrRYch8RxXx3TuR/HZlg0EEhmxI6BHd2ZenKeUjwDRo3jqjxBq351+s+7WTHU4EK2pqrD+Z59Zfe0vFUc0ipJHRZNE+5VVd3K9Ln6+XAlD0Tb2fEEIHu6EnTikrMcHI65MQ9YqW9qvqUE53xirIY2h35XHc2/r83TUtWwpXQ3OVgla2Zp/NOu3BIMGd4Wb05uGQQuA0tejMejiifaM35Sqvp84QA/GlnRaCudSqObdUVDZEVVa3u2hGfVUuYmaCa1H3jsotO2uvJnkl31B5MhobSHpxfSUC06kOEnDzqt5pxq3uTaU2NHh560UsKksIcfZKQWgXutkSvDzDoLq3rMGzzCG0M0Nh3A7zmoh1I7P8PTMzxOB6sUiEJ5YSCEtMfYSXDENT3DiB7LniKsahdvC7Rj5GLahAIwp3Iz5tc6Uuhv+udgNDADheyjh0Ld769yfGNDhbZKPucY639w9TlAW9TjDwdDz0QCk0dzPPIXcRRUSAtcAyDrBSxNRFEC1aBR9jOEoQVRHCn6Ca2Us0IAlEkksfFaip5KkQR8gUS1Zv0HHLRdpwEQXDKD567x7FpjYVlItmfkBUQX2B9Sj5zKZfo/UgG061+d3wa59rsU+2onW0hHnaRLgei6Sl8VA9CTLGTXgWFnv8Aj4l72K7mqSH8A5eQRdCm5QFYk/3Rf2+XUUwZ6wcfAO5unbIkpDAMS9HNHBeL+lCKvhFero+zn8N1BPc2OMZyxX4pP84ZZj3kc7rCNuVNQ6OP6/VSsYey5CthBc+dWC5A9XnvN9GRG4kWVCOO5zcxNIMaVIbm81Evcvx7NnXIrwqi6ZmS1j8O34BmHiYw9Z4IMBkQtECxABT8VBfyUxeby8AZAgEZzy+osgJwutly4Pc5vg2I5fQzBYrHpQBxidSP/J7XfkCEjfFMO4EkI7eo7OdW1FhYRssjW00v3gV69SH0nrJdUl4IipyzUUUv6TuAfy+QNDu69pTOW3MKM/2FB/xiiDyI3nqScPxoYa2dZgOHUvzd/bQTQouS3iJgG1sMmp0hg9999gaz52oeDCqKIQUoRaSYJxII0EcR8PQGit4IsFz5LoomIxhKIXdjE/NHbjYefRqQW3WJpCjQHQD7r/LV74LU4myBHxMRKL43AOioay0d/ABkgC9SkQmjPcX8bTkwDQObO/cQgZ75EhRMoZEf1hIMeHKsmI39nAJTT/OoYx9ndfo2cISeOiSB3c5ZBVItj+x5wlBnx2EO0RKZxFNvNkoPHXTk/BGSZzBRjY5PFxNx0cKP8MrreIMtkYia1myzYy3BgZc+MrjdIigRImKct0rY9by+Xsjyu1+tjWV4u23PbpgXOLjto5duiohrnU8dEV3ykVcl2wI9Fo+1SvbpYqJ5rPSK6snt6OZy+q1xF7hXx5MtEKq++T4dLV1fN/QA8Ob9V3QGILr2aavPAtE6stfRSxLtlkvqBuWaXgDRcqEoRpRf7T1xsm11iFPZPA0/Ed4dtrxmAyOYP670AJGvnIhfl6ToTrjre19ulQxuCEvOHfF4AojJp6jyaHVmMdpTXDSgLe8X2tACBROfmpEnRhv9aqjckG9jOsrAMGxfrenwrC0G9nr1kr70lcrZFhkbygKqqrtf6u75eH//V/cOKt0Tclk5uMxYct6fcy6Y4rMvtw5QcsqTihwG6LdcHj9Ufwuw0i1reNIkTuo+DihSJ5ElyFzjstUoeKzkdu4qSZup415HtzjNwVcnudjxvSB+WLCGOZMTD9y3Ox9sucSF3paoJXeV0tAX6iStYg3fs78pCbzF+9RMsfVivT7zHNrGfhqVLo1VL+6Go2h9bgtcV/VX65Y828ojb474aYayo8qj/o5Ad8pEvm7SGUsT9PPLIG/pcZmIma0can1V+CFHScePAQAbVZih46VHijgN9psMfO3C095SK2D6hAn0Ik2xRzN2r3hvFAk3DGclE62moVeN1zgcLvkrlpy06R51uUcWXp2+Dol5GsQnQfJ5tT7kFa7WSf+oLz78Pmdw8BSKEfvRiG7Rfz7YNTNfaN4NSo1fAJ20sNqDKZSm4Qu83fCMHih78J42syyGadATMF1T4omDAx2/qTCN2s6P9jwga7rM91B025uARcgzYr/IPNOLEDWFJICCcy215g8E5m16wEwx0TYc6VDHtol6IgMkGqKSA5FkQvWtRzCM3V0NVTmy1Nl/lrBlE1khKYLEV0mCHjE1canowiboH1jJ0CXbujNcego9TcPAAyiJgayukYLLgjRhkfjAvxYx6Ga0huhsUrRKLnQgZTQjibhE1hpWkNBx3oBoKS07xyOx/8MunxidKrIYqaq7vfx6dwVD6KE4v5bG8pEO2EbcU+sj2wQqmFBrwL/S2jWFFjgYovP/l6CK20m4uzBuqxrobTC4fKoPlh77nQednexz/rDf9D6ejgfA+ShO9+215qaQWg7IT0Td67P0u/OAwy+jNc5GlwUg7YVWNeJtIutTaJ7CVIp8ZxacSfj+FIRNAgI8Zc6mmq/hT1kaMObQDV3QHsUWJAux5TzviM4RYtXccj77wuL2uDWTgSmpi+oSL7kZU1tmTe/Q+J5NMPdC/zspTvKPum9wMLhqCQjtmc0ekScWxlgytSVQH6yQOT23jPjB2G1My+MRpd7QpwyALYkq7VpIhS7PEZhJnUJMSTAa4U0bmdY1dFMc8OcnX68KuJX907Z1EZS0Vsi/ZKtqxMXWcvkHmdbQBInQeArIlx0jfspaKDgNiBbQCJ1dM41UD1hx0X58He6ErDiBKujRKDg/OHtqOIcwnCltOuEtC/hhl8h6OxYnagbmtc4elj2figOP+HfegZIO44Rn9AI5byGpJboxFwai+4/gR86FtZg6p0EXBoUA4ZMQuQqf2bpIdd8Ru0zU54WUesrT9FumQXgBge04a6v02NsRoVpYdTeAEQGG8arPYbRAzti8Kl4mDnrr3werK08oNONt0rz1j8wrsgAInH5ZF5y6PbGsEy9r4riNjObIu1Pgzw4CCjR/6gH/xKPrTwmLcCrEbUVv6TOkh+1TpoRX0DXnVztANcWLFmA9hA9ap0w7ZY4dgDLw/KRoj5xOMIxY5SySsncJizNoW+JC9omeoS/xlXQV2tmbYrGFFPRMPtmDMkixJonul0OD1FxFtwzDGCorXHJbWcgZjXlUgySpVTS+AH3gJ+sAzjuc+44AaizfA668zDuTj26J87JO8M/j4HiSrackiq44nldUejIxk9ftIYTkPfXxw0MfOGDvoY4+qA0Mf/0c218dPCrGrDVeftavdDpmN+erOk5zzGLs6xHcy6nADfCeOjU3fSZqk5Xwn7B8LFZ65ofn9Y2FxCTIXIED2i2MgzAUEMgXFx0BInEtUucvt/C/EuWhv+38Ry5wgXo3/k3kyOF49sv44wpqYSElOwlUB4JxEMXNOopg4J6HlnRzFF8k7IZk4Q95p55F3Wg/lnSbILaLQMmvIDN/5NZZb3EyeW5wif4x+YeL8sZLnj7VR8NyO9BqBcYNTrxFARzJxjYCao0bgV9eBvL7+1HUgP1PrE7nU+rwl4eS1PovVcyV9PddAQxqu5/p8lMnrubhLaX5DzV7PtX41e8PDhM17Mh3qMhVblxk2Ev/AkYtXXebo/ZumPP2J2lscvwyqvbXoAQL6bT3d5tXpj9ZXu91vyVwSt/KpoQ/oAMfcEVJDf3WlMzakLu+T8B/eid2OgD4JQXQj3vHtJXmvTZx6YXyLypEpM94Lk95yfrM7WcxuyxvBnQp9nvQP9TuhupMnWbcnW7+TxZIbgqO1p221v8RL9bTpuhT+lseXva2TT638mpFtfXwr0rdoMMtp6I8OgGNxhtp161v0twXsOMPyZm8q/qtcKWNVbOZIHHpTA/DtwDRiNEhaA2Uc75MrZdxXb2jTeLT/2GYiCmBbDzd2P9yf3fpMzhI3TUubvvHQPSIi7uf1bmR4g4rqaabAbEaujl895wjUTZm+iRAL25A5Am9Rn6VlU7vMEThNODBCNCuiICaMLK+DaXr9Y7MinlB4zwORNAL7zwOZZdxNe7P1dA9CPvPMl3kH3aT/11yfF/xns5uekHmQ9jyw1K3e/98MNjRn7/ADc/YOy8/ZM2cpTjQhcxhZpa6n8kdmKf7AvMyHZdP84LzMwZmo+zpZOdoNDphGq6Te//xMVPjE/MCP7N6Wzf76wNx37m2H6XXflC0/9xZVli4z99Z9tvGd3u/jOtt4PeZULz3bWDK/mpR/tGk3vLqbXn18zq8+PidYX7bnlMyvHr99BSJ/89919CWdUY4TWX91RrlsDj2uT7JmZ3H2055DA0Bz6Gc3qr/Edw3gkpo/eteA9PaKv3+fhPTOkIzcGWLyHblXNHfjy2XvDBHfC5MOnyGhAUe2XPRemNC7f3TCIFLrV979E3q/kya9yNdwvgdt0fudwu/wwqRBam1+6R1e/989bb/tLr75gwIT3LfYqxRyzeavvW9xkjs1d7Z/coUl79SEm2KFOTQivTr6ILWEv/je1Gnuxn0QyMEizZxgybtxYdPSiAudlkTqvX/z/cchd1yXfHm1j1KFYpPZg3swZkE6e+Xrj95jjuy7n7yrHjVRz31XfRGEMbnx+LOOT/1mHMBcQkDVWl7kVBkYe6kX8OBmx7gIxDjTa3WYGIEDLIhxGB8/IKZl+rnnKh4+qycgkeG313ZFwS8YGbwNdwjSTl9Mk6psyt0HkHaaWx+jxKLP6VwYWe3j06MZJrPH6CGw53E4a87qcu0LxQCkMn9oz9t3ekBj6eKTV54v6TuBfyzeJ2txPZcSW13Ngv4x5FKl0YcrQZj+j3TfEImZP5968KSnOzU9lNZ9Mjwf3wDgrbBiahfwzGRqavgh6FONxiXutiyjGwh+N2rrQrqLq2tN5xKRDTMvPJtPRADn5C66tGai/LXNghqcguBes6BywpkxV0bWLppRyccwjPU/uB4YyISQVkFXOEgpSqNo4g9T+e1K2Yiz5hdcpJrKhaxjLQig6V5NR6vaxTEAonYeDRIEiB/HH9Y7XY2BDIYd5mDKIf73wkAKqCt1jAjvepSHUSa6c6G+x1QzUuVLFEXQDOjwk0bskm1wN1v5R5gTPblMlSIemTBk41305jBV8zZLZlBCMmRXINZfpIDti/b42wcrGJePDrhIBjNHlX00AurGXqYsU2tM5LNPW6bleyhPtTWeVhX/PGH7CZBxA8yfzDScbG02O46pHV2Jda8ka5MLDuJqt2kAyxp1JToxLr+ZImOHzTEpGhV9l+RDpcRiWcLC/MCW8F10Xadx1rVpXW5st5+qXCpyNuzwA1XdLl1zWHZP11f6s0v1hTxBN5VeeFpq5x3GQL3gwEaFLIv7pKtCwHWwa8fB7s6+YbEMwFKaqd+bK765jPa2YzdM9zB3LsIA5v4SBl8PcWqMXuJXXqZ9j0AxOvVTeRZb3cZxzn8AYW7OE8V3Ncft2q+lr/PXn/LAy9YnRJz54A4PI2Zg7QUtDx2KHT9QZ7UPd2raPXvQSu0Wl1kENidtEomKVrupIqqX3Yrab4+fmnI6gi+0Tf0RYnl9O067o83xhlZvJvCH/wF+kbz3sjDBKgAAAABJRU5ErkJggg==" vertex="1" parent="1">
          <mxGeometry x="886.22" y="130" width="103.78" height="90" as="geometry" />
        </mxCell>
        <mxCell id="L8OgLo_UH3lC8fWBD7sV-71" value="" style="outlineConnect=0;fontColor=#232F3E;gradientColor=#F54749;gradientDirection=north;fillColor=#C7131F;strokeColor=#ffffff;dashed=0;verticalLabelPosition=bottom;verticalAlign=top;align=center;html=1;fontSize=12;fontStyle=0;aspect=fixed;shape=mxgraph.aws4.resourceIcon;resIcon=mxgraph.aws4.amplify;" vertex="1" parent="1">
          <mxGeometry x="1040" y="136" width="78" height="78" as="geometry" />
        </mxCell>
        <mxCell id="L8OgLo_UH3lC8fWBD7sV-72" value="AWS AMPLIFY" style="text;html=1;strokeColor=none;fillColor=none;align=center;verticalAlign=middle;whiteSpace=wrap;rounded=0;" vertex="1" parent="1">
          <mxGeometry x="1034" y="220" width="90" height="20" as="geometry" />
        </mxCell>
        <mxCell id="L8OgLo_UH3lC8fWBD7sV-73" value="REACT" style="text;html=1;strokeColor=none;fillColor=none;align=center;verticalAlign=middle;whiteSpace=wrap;rounded=0;" vertex="1" parent="1">
          <mxGeometry x="918.11" y="220" width="40" height="20" as="geometry" />
        </mxCell>
        <mxCell id="L8OgLo_UH3lC8fWBD7sV-76" value="Amazon Cloudfront" style="outlineConnect=0;fontColor=#232F3E;gradientColor=none;strokeColor=#ffffff;fillColor=#232F3E;dashed=0;verticalLabelPosition=middle;verticalAlign=bottom;align=center;html=1;whiteSpace=wrap;fontSize=10;fontStyle=1;spacing=3;shape=mxgraph.aws4.productIcon;prIcon=mxgraph.aws4.cloudfront;" vertex="1" parent="1">
          <mxGeometry x="495" y="160" width="80" height="110" as="geometry" />
        </mxCell>
      </root>
    </mxGraphModel>
  </diagram>
</mxfile>
